<?xml version="1.0" standalone="no"?>
<!DOCTYPE svg PUBLIC "-//W3C//DTD SVG 1.1//EN" "http://www.w3.org/Graphics/SVG/1.1/DTD/svg11.dtd" >
<svg xmlns="http://www.w3.org/2000/svg">
<metadata>Generated by IcoMoon</metadata>
<defs>
<font id="ch" horiz-adv-x="1024">
<font-face units-per-em="1024" ascent="960" descent="-64" />
<missing-glyph horiz-adv-x="1024" />
<glyph unicode="&#x20;" horiz-adv-x="512" d="" />
<glyph unicode="&#xe900;" glyph-name="arrow-down" horiz-adv-x="1088" d="M91.456 651.648l-45.248 45.248-45.248-45.248 45.248-45.248 45.248 45.248zM136.704 696.896l45.248 45.248-45.248 45.248-45.248-45.248 45.248-45.248zM544 199.104l-45.248-45.248 45.248-45.248 45.248 45.248-45.248 45.248zM996.544 651.648l45.248-45.248 45.248 45.248-45.248 45.248-45.248-45.248zM951.296 696.896l45.248 45.248-45.248 45.248-45.248-45.248 45.248-45.248zM544 289.6l-45.248-45.248 45.248-45.248 45.248 45.248-45.248 45.248zM136.704 606.4l45.248 45.248-90.496 90.496-45.248-45.248 90.496-90.496zM589.248 244.352l-452.48 452.544-90.624-90.496 452.544-452.544 90.496 90.496zM544 289.6l-45.248-45.248 90.496-90.496 45.248 45.248-90.496 90.496zM951.296 696.896l-407.296-407.296 90.496-90.496 407.296 407.296-90.496 90.496zM906.048 651.648l45.248-45.248 90.496 90.496-45.248 45.248-90.496-90.496zM589.248 244.352l407.296 407.296-90.496 90.496-407.296-407.296 90.496-90.496zM91.456 651.648l407.296-407.296 90.496 90.496-407.296 407.296-90.496-90.496z" />
<glyph unicode="&#xe901;" glyph-name="arrow" d="M282.994 935.135c-0.060 0-0.13 0.001-0.201 0.001-8.89 0-16.93-3.638-22.714-9.505l-0.004-0.004c-5.875-5.758-9.517-13.775-9.517-22.643 0-0.251 0.003-0.502 0.009-0.751l-0.001 0.037c-0.004-0.184-0.006-0.402-0.006-0.62 0-8.891 3.661-16.927 9.557-22.682l434.28-434.377-428.617-428.52c-5.84-5.677-9.463-13.608-9.463-22.385 0-0.153 0.001-0.306 0.003-0.459v0.023c-0.002-0.144-0.004-0.315-0.004-0.485 0-8.801 3.643-16.751 9.504-22.425l0.008-0.008c6.339-6.339 14.141-9.46 23.308-9.46 0.213-0.005 0.463-0.008 0.714-0.008 8.868 0 16.885 3.642 22.638 9.511l451.443 451.443c5.868 5.681 9.511 13.631 9.511 22.431 0 0.137-0.001 0.273-0.003 0.41v-0.021c0.002 0.144 0.004 0.315 0.004 0.485 0 8.801-3.643 16.751-9.504 22.425l-458.175 458.029c-5.875 5.802-13.912 9.426-22.796 9.557h-0.025z" />
<glyph unicode="&#xe902;" glyph-name="calendar" d="M993.174 882.203h-200.92v40.691c-0.711 16.491-14.253 29.592-30.855 29.592s-30.144-13.1-30.853-29.528l-0.002-0.064v-40.691h-437.14v40.691c0 17.026-13.802 30.828-30.828 30.828s-30.828-13.802-30.828-30.828v0-40.691h-200.92c-0.032 0-0.070 0-0.108 0-16.966 0-30.72-13.754-30.72-30.72 0-0.038 0-0.076 0-0.114v0.006-878.269c0-17.031 13.797-30.828 30.828-30.828h962.344c17.026 0 30.828 13.802 30.828 30.828v0 878.269c0 17.026-13.802 30.828-30.828 30.828v0zM962.346 3.935h-900.689v591.441h900.689v-591.441zM962.346 657.085h-900.689v163.463h170.092v-40.637c0-17.026 13.802-30.828 30.828-30.828s30.828 13.802 30.828 30.828v0 40.637h437.248v-40.637c0.711-16.491 14.253-29.592 30.855-29.592s30.144 13.1 30.853 29.528l0.002 0.064v40.637h170.038v-163.463h-0.054zM646.739 312.967v-161.684h161.684v161.684h-161.684zM862.318 366.862v-269.474h-269.474v269.474h269.474z" />
<glyph unicode="&#xe903;" glyph-name="check" d="M440.164 299.687l457.801 490.496c13.295 13.608 31.829 22.046 52.335 22.046 40.396 0 73.143-32.747 73.143-73.143 0-18.723-7.035-35.803-18.605-48.74l0.062 0.071-566.126-606.647-419.182 461.019c-11.806 12.945-19.036 30.241-19.036 49.225 0 40.406 32.756 73.162 73.162 73.162 21.422 0 40.694-9.207 54.074-23.879l0.052-0.058 312.32-343.552z" />
<glyph unicode="&#xe904;" glyph-name="close" d="M898.048 906.599l72.397-72.397-844.698-844.8-72.397 72.397 844.698 844.8zM53.453 834.202l72.397 72.397 844.8-844.8-72.397-72.397-844.8 844.8z" />
<glyph unicode="&#xe905;" glyph-name="eye-close" d="M195.679 242.265c2.804-2.027 6.311-3.242 10.102-3.242 9.588 0 17.361 7.773 17.361 17.361 0 5.149-2.242 9.775-5.803 12.955l-0.017 0.015c-14.586 11.677-27.621 23.37-39.977 35.742l-128.284 128.284 132.282 132.282c84.828 85.383 202.314 138.232 332.144 138.232 53.918 0 105.708-9.115 153.911-25.888l-3.286 0.995c1.503-0.471 3.231-0.743 5.023-0.743 9.588 0 17.361 7.773 17.361 17.361 0 7.431-4.669 13.772-11.234 16.249l-0.12 0.040c-48.207 16.923-103.787 26.7-161.65 26.7-139.401 0-265.549-56.742-356.608-148.39l-156.884-156.838 152.809-152.809c13.545-13.591 27.974-26.438 42.868-38.353zM871.24 590.192c-22.769 22.776-47.684 43.404-74.416 61.557l-1.779 1.14c-2.644 1.713-5.877 2.731-9.347 2.731-9.588 0-17.361-7.773-17.361-17.361 0-5.835 2.879-10.998 7.293-14.145l0.053-0.036c25.321-16.943 49.245-36.631 71.028-58.415l128.279-128.279-132.282-132.282c-85.453-85.004-203.266-137.549-333.352-137.549-56.792 0-111.245 10.015-161.689 28.375l3.287-1.046c-1.739 0.642-3.747 1.013-5.841 1.013-9.582 0-17.35-7.768-17.35-17.35 0-7.488 4.743-13.867 11.388-16.299l0.12-0.039c50.613-18.582 109.057-29.33 170.010-29.33 139.656 0 266.134 56.423 357.882 147.716l156.837 156.791-152.809 152.809zM529.596 235.563c-0.059 0-0.128 0-0.198 0-38.927 0-75.243 11.181-105.911 30.506l0.823-0.484c-2.425 1.368-5.325 2.174-8.412 2.174-9.588 0-17.361-7.773-17.361-17.361 0-5.893 2.936-11.1 7.425-14.239l0.056-0.037c35.022-22.113 77.639-35.235 123.321-35.235 0.091 0 0.181 0 0.272 0h-0.014c129.25 0.132 233.991 104.874 234.124 234.111v0.012c0 46.545-13.684 91.555-39.471 130.095-3.16 4.673-8.441 7.705-14.429 7.705-9.589 0-17.363-7.774-17.363-17.363 0-3.601 1.096-6.946 2.973-9.719l-0.039 0.061c22.016-32.815 33.606-71.121 33.606-110.778-0.132-110.082-89.322-199.288-199.385-199.447h-0.015zM529.596 634.411c35.84 0 70.889-9.588 101.516-27.741 2.358-1.276 5.161-2.027 8.14-2.027 9.588 0 17.361 7.773 17.361 17.361 0 6.034-3.079 11.35-7.751 14.461l-0.064 0.040c-34.057 20.473-75.16 32.582-119.091 32.582-0.056 0-0.111 0-0.167 0h0.009c-129.271-0.213-233.982-105.056-233.982-234.356 0-37.406 8.764-72.765 24.35-104.136l-0.613 1.364c3.020-5.379 8.687-8.954 15.19-8.954 9.588 0 17.361 7.773 17.361 17.361 0 2.479-0.52 4.838-1.456 6.971l0.044-0.111c-12.739 25.552-20.195 55.658-20.195 87.506 0 110.164 89.211 199.491 199.33 199.68h0.018zM947.202 863.461c-3.135 3.146-7.473 5.093-12.265 5.093s-9.129-1.947-12.264-5.092v0l-806.4-806.447c-3.129-3.135-5.064-7.462-5.064-12.241 0-9.57 7.758-17.328 17.328-17.328 4.791 0 9.128 1.944 12.264 5.087v0l806.353 806.4c3.146 3.135 5.093 7.473 5.093 12.265s-1.947 9.129-5.092 12.264v0z" />
<glyph unicode="&#xe906;" glyph-name="eye" d="M883.2 587.025c-205.638 205.684-540.207 205.684-745.844 0l-137.356-137.309 140.753-140.753c95.172-95.3 226.72-154.252 372.036-154.252 0.328 0 0.656 0 0.983 0.001h-0.051c135.028 0 270.103 51.386 372.922 154.252l137.356 137.309-140.8 140.753zM862.161 333.399c-192.14-192.14-504.785-192.14-696.925 0l-116.364 116.317 112.966 112.826c192.14 192.233 504.785 192.233 696.925 0.047l116.317-116.271-112.919-112.919zM494.173 586.885c-66.83-0.079-120.985-54.235-121.065-121.057v-0.007c0.491-9.169 8.045-16.417 17.292-16.417s16.801 7.249 17.29 16.374l0.002 0.043c0.053 47.741 38.74 86.428 86.476 86.481h0.005c9.169 0.491 16.417 8.045 16.417 17.292s-7.249 16.801-16.374 17.29l-0.043 0.002zM511.535 673.367c-124.163-0.106-224.795-100.705-224.954-224.846v-0.015c0.159-124.123 100.737-224.702 224.846-224.861h0.016c124.144 0.132 224.749 100.721 224.908 224.846v0.015c-0.132 124.118-100.7 224.702-224.799 224.861h-0.015zM511.535 258.228c-105.074 0.079-190.239 85.211-190.371 190.265v0.012c0.132 105.034 85.243 190.145 190.265 190.278h0.013c105.034-0.132 190.145-85.243 190.278-190.265v-0.013c-0.106-105.045-85.233-190.172-190.268-190.278h-0.010z" />
<glyph unicode="&#xe907;" glyph-name="filter" d="M146.278 208.871v714.598c0 10.095-8.184 18.278-18.278 18.278s-18.278-8.184-18.278-18.278v0-714.598c-62.33-9.291-109.613-62.39-109.722-126.555v-0.011c0-70.554 57.395-128 128-128s128 57.498 128 128c-0.109 64.176-47.392 117.276-109.019 126.48l-0.703 0.086zM128-9.19c-50.479 0.058-91.385 40.964-91.443 91.438v0.006c0 50.432 41.011 91.443 91.443 91.443s91.443-41.011 91.443-91.443-41.011-91.443-91.443-91.443zM530.278 581.607v341.862c0 10.109-8.195 18.304-18.304 18.304s-18.304-8.195-18.304-18.304v0-340.787c-66.202-7.635-117.14-63.311-117.248-130.907v-0.011c0.080-67.629 51.029-123.333 116.636-130.912l0.612-0.058v-348.262c0-10.109 8.195-18.304 18.304-18.304s18.304 8.195 18.304 18.304v0 349.542c62.591 10.99 109.562 64.89 109.67 129.78v0.012c-0.109 64.902-47.079 118.802-108.878 129.676l-0.793 0.116zM508.16 356.583c-52.572 0.058-95.174 42.66-95.232 95.226v0.006c0 52.48 42.752 95.232 95.232 95.232 52.531 0 95.232-42.752 95.232-95.232s-42.701-95.232-95.232-95.232zM1024 813.748c0 70.554-57.395 128-128 128-70.657-0.087-127.913-57.343-128-127.991v-0.009c0-64.358 47.77-117.606 109.722-126.566v-714.598c0-10.095 8.184-18.278 18.278-18.278s18.278 8.184 18.278 18.278v714.598c62.33 9.291 109.613 62.39 109.722 126.555v0.011zM896 722.304c-50.479 0.058-91.385 40.964-91.443 91.438v0.006c0 50.432 41.011 91.443 91.443 91.443s91.443-41.062 91.443-91.443c0-50.432-41.011-91.443-91.443-91.443z" />
<glyph unicode="&#xe908;" glyph-name="heart-full" d="M1022.334 634.632c-14.964 159.876-131.435 275.819-277.141 275.819-99.347-0.045-186.463-52.37-235.334-130.953l-0.682-1.176c-49.548 82.415-134.805 132.129-230.334 132.129-145.705 0-262.177-115.943-277.174-275.786-1.156-7.036-6.012-44.197 8.721-104.778 21.24-87.403 70.26-166.879 141.774-229.838l356.781-314.5 362.892 314.467c71.482 62.993 120.535 142.435 141.774 229.871 14.732 60.548 9.877 97.709 8.721 104.778z" />
<glyph unicode="&#xe909;" glyph-name="heart" d="M512.001-7.527c-0.004 0-0.009 0-0.014 0-15.193 0-29.068 5.64-39.648 14.94l0.067-0.058c-23.882 21.14-61.771 53.87-99.868 86.364l-16.561 13.783-0.171 0.171c-103.185 87.893-192.273 163.84-254.259 238.592-69.291 83.661-101.547 162.953-101.547 249.549 0 84.070 28.843 161.724 81.237 218.556 53.009 57.481 125.747 89.156 204.8 89.156 59.119 0 113.254-18.705 160.905-55.535 24.898-19.583 46.357-41.952 64.392-66.954l0.667-0.971c18.702 25.973 40.16 48.342 64.354 67.391l0.704 0.534c47.65 36.864 101.786 55.535 160.87 55.535 79.087 0 151.825-31.676 204.834-89.156 52.395-56.832 81.237-134.485 81.237-218.59 0-86.596-32.256-165.888-101.547-249.515-61.986-74.752-151.074-150.665-254.225-238.592-54.603-46.226-92.571-79.023-130.325-112.059l13.657 11.707c-10.506-9.222-24.367-14.848-39.541-14.848-0.007 0-0.014 0-0.020 0h0.001zM286.038 843.519c-62.123 0-119.194-24.781-160.7-69.803-42.155-45.739-65.365-108.885-65.365-177.937 0-72.841 27.068-138.001 87.757-211.217 58.709-70.793 145.92-145.135 246.955-231.253l0.205-0.171c55.006-46.581 93.086-79.479 130.955-112.612l-13.946 11.953c41.95 36.523 82.057 70.69 117.419 100.864 101.035 86.084 188.279 160.427 246.955 231.219 60.689 73.25 87.723 138.377 87.723 211.217 0 69.018-23.211 132.198-65.331 177.937-41.506 45.022-98.577 69.803-160.734 69.803-45.5 0-87.279-14.473-124.177-43.008-32.905-25.429-55.808-57.583-69.222-80.077-6.652-11.13-18.638-18.467-32.337-18.467-0.067 0-0.135 0-0.202 0.001h0.010c-0.057 0-0.124 0-0.192 0-13.699 0-25.685 7.337-32.242 18.296l-0.095 0.171c-13.414 22.528-36.318 54.647-69.222 80.111-36.864 28.501-78.677 43.008-124.177 43.008z" />
<glyph unicode="&#xe90a;" glyph-name="language" d="M512 960c-282.317 0-512-229.683-512-512s229.683-512 512-512 512 229.683 512 512-229.683 512-512 512zM874.496 710.195c-48.007-19.988-104.932-37.466-163.817-49.569l-6.218-1.068c-27.143 87.919-67.374 164.335-119.112 231.421l1.25-1.687c119.102-20.809 220.052-86.147 287.011-177.875l0.886-1.273zM656.896 308.48c-43.537 6.294-93.81 9.887-144.922 9.887s-101.383-3.594-150.577-10.542l5.655 0.655c-9.431 41.974-14.835 90.18-14.835 139.648 0 49.211 5.348 97.172 15.494 143.335l-0.812-4.404c47.821-6.451 96-11.059 145.101-11.059s97.28 4.557 144.998 11.059c9.35-41.795 14.706-89.797 14.706-139.051 0-49.425-5.394-97.591-15.626-143.94l0.817 4.411zM640.307 649.677c-38.549-5.255-83.104-8.256-128.358-8.256s-89.808 3-133.473 8.812l5.114-0.557c28.829 88.532 72.683 164.988 129.119 230.266l-0.709-0.839c55.692-64.442 99.514-140.899 126.985-224.762l1.323-4.665zM437.248 889.293c-50.449-65.386-90.647-141.786-116.386-224.556l-1.374-5.128c-65.089 13.163-121.997 30.624-176.413 52.916l6.429-2.331c67.793 92.991 168.692 158.328 285.056 178.758l2.688 0.391zM64 448c0 74.598 18.637 144.896 50.995 206.848 61.184-25.139 124.006-44.954 188.57-57.907-9.798-44.813-15.41-96.288-15.41-149.074 0-52.874 5.631-104.434 16.325-154.111l-0.864 4.792c-64.512-12.851-127.539-32.512-188.621-57.6-32.113 60.047-50.981 131.344-50.995 207.048v0.005zM149.504 185.805c47.986 19.977 104.892 37.454 163.757 49.566l6.227 1.071c27.129-87.917 67.343-164.333 119.063-231.424l-1.252 1.69c-119.072 20.808-219.991 86.148-286.909 177.874l-0.886 1.275zM383.693 246.323c38.535 5.255 83.071 8.254 128.307 8.254s89.773-3 133.421-8.811l-5.114 0.557c-28.824-88.522-72.641-164.974-129.023-230.275l0.716 0.848c-55.692 64.442-99.514 140.899-126.985 224.762l-1.323 4.665zM586.598 6.707c50.481 65.386 90.711 141.784 116.486 224.554l1.376 5.129c65.129-13.19 122.053-30.65 176.496-52.925l-6.461 2.339c-67.845-92.968-168.773-158.283-285.157-178.707l-2.689-0.391zM720.333 298.701c20.582 98.355 20.634 199.936 0.051 298.291 72.075 14.917 135.177 34.889 195.335 60.441l-6.715-2.534c32.090-60.002 50.94-131.25 50.94-206.899s-18.85-146.897-52.109-209.302l1.169 2.402c-53.437 22.884-116.564 42.753-181.968 56.427l-6.704 1.173z" />
<glyph unicode="&#xe90b;" glyph-name="latter" d="M819.606 255.665c-0.009 0-0.020 0-0.030 0-4.231 0-8.076 1.654-10.923 4.35l-184.313 172.908c-3.1 2.927-5.030 7.064-5.030 11.652 0 8.843 7.169 16.012 16.012 16.012 4.255 0 8.122-1.659 10.989-4.366l-0.008 0.007 184.32-172.879c3.127-2.927 5.075-7.080 5.075-11.688 0-8.834-7.161-15.996-15.996-15.996-0.034 0-0.068 0-0.102 0h0.005zM204.359 255.665c-8.826 0.036-15.968 7.199-15.968 16.031 0 4.587 1.926 8.724 5.014 11.646l184.327 172.922c2.782 2.387 6.426 3.84 10.41 3.84 8.854 0 16.031-7.177 16.031-16.031 0-4.318-1.707-8.236-4.482-11.119l0.005 0.005-184.355-172.95c-2.84-2.689-6.685-4.343-10.916-4.343-0.011 0-0.021 0-0.032 0h0.002zM928.609 94.897h-833.218c-44.213 0.040-80.044 35.871-80.084 80.080v546.043c0.040 44.213 35.871 80.044 80.080 80.084h833.222c44.213-0.040 80.044-35.871 80.084-80.080v-546.043c-0.040-44.213-35.871-80.044-80.080-80.084h-0.004zM95.391 769.077c-26.483 0-48.022-21.539-48.022-48.022v-546.074c0-26.483 21.539-48.022 48.022-48.022h833.218c26.483 0 48.022 21.539 48.022 48.022v546.039c0 26.483-21.539 48.022-48.022 48.022h-833.218zM512.018 367.492c-0.275-0.003-0.601-0.005-0.927-0.005-22.135 0-42.395 8.028-58.027 21.332l0.127-0.105-411.295 358.788c-3.352 2.959-5.455 7.265-5.455 12.063 0 4.040 1.491 7.731 3.953 10.555l-0.016-0.019c2.965 3.356 7.279 5.461 12.084 5.461 4.028 0 7.711-1.479 10.535-3.924l-0.020 0.017 411.295-358.753c20.48-17.832 55.084-17.832 75.494 0l410.801 358.188c2.773 2.357 6.395 3.791 10.352 3.791 8.854 0 16.031-7.177 16.031-16.031 0-4.721-2.041-8.966-5.289-11.9l-0.014-0.012-410.836-358.188c-16.243-14.124-37.5-21.222-58.792-21.222z" />
<glyph unicode="&#xe90c;" glyph-name="lesson" d="M955.197 703.885c-67.646 116.379-177.023 202.196-307.169 237.612l-3.564 0.826c-39.858 11.227-85.631 17.68-132.911 17.68-94.098 0-182.225-25.563-257.816-70.124l2.375 1.295c-116.379-67.646-202.196-177.023-237.612-307.169l-0.826-3.564c-11.237-39.876-17.697-85.669-17.697-132.971 0-94.074 25.55-182.18 70.089-257.757l-1.295 2.376c67.658-116.389 177.054-202.209 307.221-237.613l3.563-0.826c39.843-11.21 85.599-17.654 132.86-17.654 94.111 0 182.255 25.553 257.87 70.098l-2.379-1.296c116.379 67.646 202.196 177.023 237.612 307.169l0.826 3.564c11.227 39.858 17.68 85.631 17.68 132.911 0 94.098-25.563 182.225-70.124 257.816l1.295-2.375zM954.89 329.305c-32.48-119.793-109.378-217.781-211.486-277.207l-2.172-1.167c-65.592-38.76-144.542-61.661-228.841-61.661-42.354 0-83.358 5.781-122.266 16.597l3.202-0.76c-119.785 32.467-217.771 109.347-277.207 211.436l-1.167 2.171c-38.766 65.595-61.671 144.551-61.671 228.857 0 42.367 5.784 83.382 16.607 122.3l-0.76-3.202c32.48 119.793 109.378 217.781 211.486 277.207l2.172 1.167c65.609 38.746 144.574 61.638 228.884 61.638 42.337 0 83.326-5.773 122.223-16.573l-3.204 0.759c119.782-32.501 217.763-109.393 277.207-211.486l1.168-2.172c38.76-65.592 61.661-144.542 61.661-228.841 0-42.354-5.781-83.358-16.597-122.266l0.76 3.202zM757.514 496.269l-329.062 189.952c-7.983 4.75-17.603 7.558-27.878 7.558s-19.895-2.808-28.133-7.698l0.255 0.14c-16.786-9.667-27.905-27.508-27.905-47.946 0-0.118 0-0.236 0.001-0.354v0.018-379.904c0-20.173 10.445-38.246 27.904-48.333 8-4.72 17.626-7.509 27.904-7.509s19.904 2.789 28.164 7.65l-0.26-0.142 329.011 189.952c16.789 9.704 27.905 27.572 27.905 48.035 0 0.105 0 0.209-0.001 0.314v-0.016c0 20.173-10.445 38.195-27.904 48.282zM730.89 445.837l-329.062-189.952c-0.35-0.245-0.785-0.392-1.254-0.392s-0.904 0.147-1.261 0.397l0.007-0.005c-1.229 0.717-1.229 1.638-1.229 2.099v379.955c0 0.512 0 1.434 1.229 2.15 0.361 0.24 0.801 0.391 1.275 0.409h0.005c0.563 0 1.024-0.256 1.229-0.41l329.062-189.952c0.738-0.366 1.236-1.114 1.236-1.978 0-0.061-0.002-0.121-0.007-0.18l0.001 0.008c0.004-0.052 0.007-0.112 0.007-0.172 0-0.864-0.498-1.612-1.223-1.973l-0.013-0.006zM826.583 691.085c-63.013 80.289-154.632 135.641-259.273 150.684l-2.154 0.254c-1.077 0.154-2.32 0.242-3.584 0.242-14.711 0-26.636-11.925-26.636-26.636 0-13.447 9.964-24.566 22.911-26.378l0.14-0.016c92.499-13.282 171.844-61.251 225.835-130.060l0.571-0.756c4.924-6.325 12.538-10.355 21.094-10.355 14.725 0 26.663 11.937 26.663 26.663 0 6.169-2.095 11.849-5.613 16.367l0.045-0.060z" />
<glyph unicode="&#xe90d;" glyph-name="logo" d="M358.151 506.369l-72.002-83.383c-6.583 9.099-16.062 16.413-28.438 21.972-11 5.194-23.886 8.259-37.48 8.338h-0.028c-25.776 0-46.753-9.45-62.903-28.409-16.179-18.959-24.283-41.838-24.283-68.608 0-26.712 8.104-49.503 24.283-68.198 16.15-18.725 37.625-28.058 64.424-28.058 29.286 0 51.785 9.362 67.438 28.058l68.988-84.144c-33.353-32.329-79.843-48.508-139.469-48.508-61.147 0-111.675 18.198-151.581 54.506-39.936 36.396-59.889 85.197-59.889 146.286 0 60.123 20.1 108.632 60.27 145.525s90.317 55.325 150.44 55.325c26.77 0 53.189-4.681 79.199-14.014 26.039-9.275 46.373-21.533 61.030-36.688zM781.063 167.571h-125.045v204.624c0 53.072-18.432 79.579-55.325 79.579-20.714 0-37.157-7.548-49.269-22.733-12.142-15.155-18.198-34.348-18.198-57.607v-203.864h-124.284v573.001h124.284v-243.302h1.521c9.070 16.179 23.259 29.93 42.423 41.311 19.222 11.352 41.194 17.057 65.975 17.057 47.484 0 82.359-15.038 104.594-45.115 22.235-30.047 33.353-66.56 33.353-109.509v-233.472zM994.407 286.94c14.921-14.482 22.382-32.037 22.382-52.663 0-20.743-7.461-38.298-22.382-52.692-13.393-13.382-31.889-21.659-52.319-21.659-0.388 0-0.776 0.003-1.163 0.009l0.058-0.001c-0.419-0.008-0.912-0.013-1.407-0.013-20.617 0-39.346 8.084-53.19 21.255l0.032-0.030c-14.007 12.647-22.772 30.87-22.772 51.141 0 0.401 0.003 0.802 0.010 1.202l-0.001-0.060c0 20.714 7.607 38.415 22.762 53.072 13.697 13.62 32.578 22.039 53.426 22.039 0.4 0 0.8-0.003 1.199-0.009l-0.060 0.001c20.714 0 38.532-7.197 53.424-21.592z" />
<glyph unicode="&#xe90e;" glyph-name="search" d="M442.531 94.092c-234.217 0-424.076 189.719-424.076 423.75s189.812 423.703 424.029 423.703c234.263 0 424.169-189.719 424.169-423.703 0-234.031-189.905-423.75-424.122-423.75zM442.531 140.638c208.524 0 377.577 168.867 377.577 377.204 0 208.291-169.053 377.158-377.623 377.158-208.524 0-377.484-168.82-377.484-377.158s169.007-377.204 377.53-377.204zM699.090 228.655l32.954 32.861 273.501-274.153-32.954-32.908z" />
<glyph unicode="&#xe90f;" glyph-name="sort" d="M774.707-21.094c0-14.209 11.519-25.728 25.728-25.728s25.728 11.519 25.728 25.728v0 876.288l154.010-154.010c4.62-4.649 11.018-7.527 18.088-7.527 0.049 0 0.098 0 0.147 0h-0.008c0.104-0.002 0.226-0.002 0.349-0.002 14.082 0 25.498 11.416 25.498 25.498 0 7.141-2.936 13.596-7.666 18.225l-0.005 0.004-197.734 197.734c-4.706 4.466-11.082 7.212-18.099 7.212s-13.393-2.746-18.111-7.223l0.012 0.011-197.683-197.734c-4.656-4.621-7.538-11.024-7.538-18.099s2.882-13.478 7.536-18.098l0.002-0.002c10.035-10.035 26.112-10.035 36.198 0l153.958 154.010v-876.288h-0.41zM439.194 194.816c-4.621 4.656-11.024 7.538-18.099 7.538s-13.478-2.882-18.098-7.536l-154.012-154.012v876.288c0 14.209-11.519 25.728-25.728 25.728s-25.728-11.519-25.728-25.728v0-876.288l-153.805 154.010c-4.621 4.656-11.024 7.538-18.099 7.538s-13.478-2.882-18.098-7.536l-0.002-0.002c-4.656-4.621-7.538-11.024-7.538-18.099s2.882-13.478 7.536-18.098l197.736-197.736c4.62-4.649 11.018-7.527 18.088-7.527 0.049 0 0.098 0 0.147 0h-0.008c6.656 0 13.158 2.56 18.176 7.526l197.734 197.734c4.45 4.674 7.189 11.014 7.189 17.993 0 7.083-2.82 13.507-7.399 18.212l0.006-0.006z" />
<glyph unicode="&#xe910;" glyph-name="source" d="M890.317 693.81h-623.77c-57.979 0.087-104.953 47.080-105.011 105.057v0.006c0 57.754 47.002 105.011 105.011 105.011h623.923c15.496 0 28.058 12.562 28.058 28.058s-12.562 28.058-28.058 28.058v0h-623.872c-88.929-0.145-160.981-72.197-161.126-161.112v-701.761c0.145-88.929 72.197-160.981 161.112-161.126h623.937c15.474 0.029 28.006 12.58 28.006 28.058 0 0 0 0 0 0v0 701.696c-0.173 15.498-12.748 28.001-28.257 28.058h-0.005zM862.259-7.886h-595.661c-57.961 0.087-104.924 47.050-105.011 105.003v579.387c28.002-24.24 64.781-39.011 105.010-39.014h595.662v-645.376zM275.456 824.37c-15.496 0-28.058-12.562-28.058-28.058s12.562-28.058 28.058-28.058v0h526.848c15.496 0 28.058 12.562 28.058 28.058s-12.562 28.058-28.058 28.058v0h-526.848z" />
<glyph unicode="&#xe911;" glyph-name="star-full" d="M561.46 903.87l115.456-232.448c8.038-16.179 23.552-27.392 41.523-29.952l258.304-37.325c45.21-6.502 63.283-61.696 30.566-93.389l-186.88-180.941c-13.005-12.595-18.944-30.72-15.872-48.486l44.134-255.488c7.68-44.8-39.578-78.899-80.026-57.805l-231.066 120.627c-7.444 3.955-16.277 6.277-25.651 6.277s-18.207-2.322-25.953-6.423l0.302 0.146-231.014-120.627c-40.448-21.146-87.757 13.005-80.026 57.754l44.134 255.488c0.508 2.794 0.798 6.010 0.798 9.294 0 15.402-6.386 29.312-16.654 39.228l-0.016 0.015-186.829 180.941c-32.717 31.693-14.643 86.886 30.566 93.338l258.304 37.325c17.92 2.56 33.485 13.773 41.472 29.952l115.507 232.448c20.224 40.755 78.643 40.755 98.918 0z" />
<glyph unicode="&#xe912;" glyph-name="star" d="M1001.749 493.473c20.173 19.507 27.29 48.128 18.586 74.701-8.748 26.263-31.342 45.606-58.902 49.517l-0.387 0.045-247.962 35.738c-10.749 1.556-19.666 8.205-24.338 17.378l-0.085 0.184-110.848 222.771c-12.224 24.256-36.931 40.603-65.456 40.603-0.136 0-0.272 0-0.408-0.001h0.021c-28.16 0-53.402-15.565-65.843-40.602l-110.797-222.771c-4.763-9.351-13.677-15.997-24.247-17.541l-0.175-0.021-247.962-35.789c-27.942-3.935-50.537-23.262-59.141-48.997l-0.149-0.513c-8.704-26.624-1.536-55.194 18.586-74.65l179.405-173.414c6.046-5.789 9.803-13.926 9.803-22.941 0-1.953-0.176-3.865-0.514-5.72l0.029 0.194-42.342-244.838c-0.683-3.729-1.074-8.021-1.074-12.404 0-24.139 11.847-45.51 30.044-58.617l0.214-0.147c11.94-8.778 26.934-14.048 43.158-14.048 12.512 0 24.291 3.134 34.597 8.66l-0.392-0.192 221.747 115.61c4.383 2.328 9.584 3.695 15.104 3.695s10.721-1.367 15.282-3.781l-0.178 0.086 221.747-115.61c9.914-5.282 21.681-8.385 34.173-8.385 16.199 0 31.179 5.217 43.352 14.062l-0.213-0.147c22.835 16.435 33.997 43.725 29.184 71.219l-42.291 244.838c-0.296 1.634-0.465 3.516-0.465 5.436 0 9.039 3.748 17.203 9.774 23.022l0.009 0.009 179.405 173.414zM772.629 284.782l42.342-244.838c0.329-1.707 0.517-3.669 0.517-5.676 0-10.616-5.262-20.003-13.32-25.695l-0.099-0.066c-5.256-3.895-11.869-6.235-19.029-6.235-5.535 0-10.744 1.399-15.291 3.862l0.17-0.084-221.747 115.61c-9.929 5.26-21.704 8.347-34.202 8.347s-24.273-3.088-34.606-8.542l0.405 0.195-221.696-115.61c-4.378-2.373-9.585-3.769-15.117-3.769-7.16 0-13.773 2.336-19.121 6.288l0.088-0.062c-8.155 5.769-13.414 15.162-13.414 25.784 0 1.998 0.186 3.953 0.542 5.848l-0.030-0.195 42.342 244.838c0.667 3.691 1.048 7.939 1.048 12.277 0 20.486-8.503 38.986-22.171 52.163l-0.022 0.021-179.405 173.414c-6.079 5.729-9.864 13.834-9.864 22.823 0 3.615 0.612 7.088 1.739 10.319l-0.067-0.22c3.758 11.646 13.751 20.234 25.948 21.895l0.164 0.018 247.962 35.738c24.346 3.548 44.536 18.625 55.104 39.417l0.192 0.417 110.899 222.72c5.286 10.696 16.12 17.923 28.641 17.923 0.155 0 0.309-0.001 0.463-0.003h-0.023c12.595 0 23.501-6.656 29.082-17.92l110.848-222.72c10.701-21.504 31.386-36.403 55.296-39.834l247.962-35.738c12.361-1.679 22.354-10.268 26.049-21.689l0.063-0.225c1.055-3.007 1.664-6.475 1.664-10.084 0-8.992-3.782-17.101-9.841-22.823l-0.015-0.014-179.354-173.414c-13.671-13.188-22.161-31.668-22.161-52.131 0-4.375 0.388-8.659 1.131-12.819l-0.065 0.439z" />
<glyph unicode="&#xe913;" glyph-name="success" d="M869.268 805.282c-95.421 95.421-222.316 147.981-357.268 147.981-134.966 0-261.848-52.547-357.268-147.981-95.448-95.434-147.995-222.316-147.995-357.282s52.547-261.848 147.995-357.282c95.421-95.421 222.316-147.981 357.268-147.981 134.966 0 261.848 52.547 357.268 147.981 95.448 95.434 147.995 222.316 147.995 357.282s-52.547 261.848-147.995 357.282zM512-17.004c-256.404 0-465.004 208.6-465.004 465.004s208.6 465.004 465.004 465.004 465.004-208.6 465.004-465.004-208.6-465.004-465.004-465.004zM799.353 664.899c-12.759 12.73-30.369 20.603-49.819 20.603s-37.060-7.872-49.82-20.604l-296.42-296.42-97.145 97.132c-12.758 12.727-30.366 20.596-49.812 20.596s-37.054-7.869-49.814-20.597l0.001 0.001c-12.73-12.759-20.603-30.369-20.603-49.819s7.872-37.060 20.604-49.82l146.943-146.956c12.678-12.735 30.223-20.615 49.608-20.615 0.076 0 0.153 0 0.229 0h-0.012c18.809 0 36.514 7.316 49.812 20.615l346.247 346.247c12.73 12.759 20.603 30.369 20.603 49.819s-7.872 37.060-20.604 49.82l0.001-0.001zM770.883 593.731l-346.233-346.233c-5.436-5.468-12.963-8.852-21.281-8.852-0.026 0-0.053 0-0.079 0h0.004c-0.024 0-0.052 0-0.080 0-8.316 0-15.841 3.384-21.274 8.851l-146.945 146.945c-5.457 5.469-8.832 13.018-8.832 21.356s3.375 15.887 8.833 21.356l-0.001-0.001c5.447 5.445 12.97 8.812 21.28 8.812 0.027 0 0.053 0 0.080 0h-0.004c7.72 0 15.468-2.937 21.342-8.825l111.36-111.36c7.869-7.869 20.615-7.869 28.47 0l310.649 310.649c5.469 5.457 13.018 8.832 21.356 8.832s15.887-3.375 21.356-8.833l-0.001 0.001c5.457-5.469 8.832-13.018 8.832-21.356s-3.375-15.887-8.833-21.356l0.001 0.001zM918.838 364.84c-1.493 0.397-3.207 0.624-4.974 0.624-9.353 0-17.216-6.378-19.476-15.022l-0.031-0.14c-44.504-174.781-201.741-296.852-382.356-296.852-11.117 0-20.13-9.012-20.13-20.13s9.012-20.13 20.13-20.13v0c199.033 0 372.318 134.548 421.376 327.181 2.749 10.779-3.773 21.733-14.552 24.468zM926.68 468.13c-11.116 0-20.13-9.027-20.13-20.13 0-5.767-0.135-11.56-0.377-17.246-0.012-0.261-0.019-0.568-0.019-0.876 0-11.12 9.015-20.135 20.135-20.135 10.812 0 19.634 8.522 20.115 19.216l0.002 0.043c0.269 6.279 0.404 12.665 0.404 18.998 0 11.116-9.027 20.13-20.13 20.13z" />
<glyph unicode="&#xe914;" glyph-name="time" d="M983.144 647.424c-54.016 125.952-145.766 217.498-272.64 271.616-58.611 25.889-126.958 40.96-198.825 40.96-0.174 0-0.349 0-0.523 0h0.027c-0.335 0.001-0.731 0.001-1.128 0.001-71.454 0-139.392-15.054-200.816-42.164l3.185 1.254c-125.901-54.016-218.010-145.459-272.128-271.667-25.474-57.917-40.301-125.435-40.301-196.415 0-0.878 0.002-1.755 0.007-2.632l-0.001 0.135c-0.004-0.713-0.006-1.557-0.006-2.401 0-71.189 14.825-138.914 41.557-200.259l-1.256 3.236c54.118-126.157 146.278-218.214 272.128-272.23 58.206-25.824 126.104-40.859 197.513-40.859 0.438 0 0.876 0.001 1.314 0.002h-0.068c69.376 0 135.885 13.824 199.27 40.909 126.976 54.118 218.675 146.278 272.691 272.23 25.825 58.436 40.859 126.583 40.859 198.242 0 0.398 0 0.795-0.001 1.193v-0.062c0.001 0.366 0.002 0.798 0.002 1.232 0 71.449-15.035 139.386-42.114 200.821l1.255-3.191zM901.378 222.259c-40.215-68.576-95.893-124.107-162.478-162.998l-2.13-1.149c-63.823-38.039-140.747-60.526-222.922-60.526-0.937 0-1.873 0.003-2.809 0.009l0.144-0.001c-61.030 0-119.296 11.776-174.694 35.84-55.45 24.115-103.27 55.808-143.36 95.846-39.987 40.038-71.885 88.371-95.744 143.923-22.273 50.968-35.233 110.358-35.233 172.775 0 0.909 0.003 1.817 0.008 2.724l-0.001-0.139c-0.008 0.976-0.012 2.131-0.012 3.286 0 81.755 22.255 158.312 61.038 223.943l-1.121-2.051c40.078 68.514 95.561 124.030 161.932 163l2.113 1.147c63.522 38.037 140.138 60.529 222.007 60.529 1.079 0 2.157-0.004 3.233-0.012l-0.166 0.001c0.787 0.005 1.719 0.008 2.651 0.008 82.18 0 159.108-22.487 224.966-61.644l-2.030 1.117c68.676-40.092 124.341-95.61 163.46-162.039l1.148-2.108c38.006-63.552 60.478-140.189 60.478-222.074 0-1.091-0.004-2.181-0.012-3.271l0.001 0.167c0.007-0.936 0.011-2.042 0.011-3.149 0-82.241-22.448-159.239-61.55-225.202l1.123 2.047zM529.717 464.128v279.501c0 16.691-15.36 30.208-32.973 30.208-16.486 0-31.232-13.517-31.232-30.208v-283.853c0-0.512 1.126-2.714 1.126-4.301-0.207-1.264-0.325-2.72-0.325-4.204 0-7.948 3.391-15.103 8.806-20.099l0.019-0.017 169.882-161.28c5.833-5.037 13.49-8.106 21.862-8.106s16.029 3.068 21.905 8.142l-0.043-0.036c5.823 5.174 9.473 12.682 9.473 21.043s-3.65 15.869-9.444 21.018l-0.029 0.025-159.027 152.115z" />
<glyph unicode="&#xe915;" glyph-name="user" d="M902.33 134.575c0-233.751-780.66-233.751-780.66 0 0 215.573 174.757 390.33 390.33 390.33s390.33-174.757 390.33-390.33v0zM855.785 134.575c0 189.867-153.918 343.785-343.785 343.785s-343.785-153.918-343.785-343.785v0c0-171.66 687.569-171.66 687.569 0zM516.375 486.459c-124.342 0-225.14 100.799-225.14 225.14s100.799 225.14 225.14 225.14v0c124.342 0 225.14-100.799 225.14-225.14s-100.799-225.14-225.14-225.14v0zM516.375 533.004c98.635 0 178.595 79.96 178.595 178.595s-79.96 178.595-178.595 178.595v0c-98.635 0-178.595-79.96-178.595-178.595s79.96-178.595 178.595-178.595v0z" />
</font>
</defs>
</svg>
