<svg width="15" height="16" fill="none" xmlns="http://www.w3.org/2000/svg"><g opacity=".475"><mask id="a" fill="#fff"><path fill-rule="evenodd" clip-rule="evenodd" d="M.707 7.293L0 8l7.071 7.071.707-.707L14.142 8l-.707-.707-6.364 6.364L.707 7.293z"/></mask><path d="M0 8l-.707-.707-.707.707.707.707L0 8zm.707-.707l.707-.707-.707-.707L0 6.586l.707.707zm6.364 7.778l-.707.707.707.707.707-.707-.707-.707zM14.142 8l.707.707.707-.707-.707-.707-.707.707zm-.707-.707l.707-.707-.707-.707-.707.707.707.707zm-6.364 6.364l-.707.707.707.707.707-.707-.707-.707zM.707 8.707L1.414 8 0 6.586l-.707.707L.707 8.707zm7.071 5.657L.708 7.293-.708 8.707l7.071 7.071 1.414-1.414zm-.707-.707l-.707.707 1.414 1.414.707-.707-1.414-1.414zm6.364-6.364l-6.364 6.364 1.414 1.414 6.364-6.364-1.414-1.414zM12.728 8l.707.707 1.414-1.414-.707-.707L12.728 8zm-4.95 6.364L14.142 8l-1.414-1.414-6.364 6.364 1.414 1.414zM0 8l6.364 6.364 1.414-1.414-6.364-6.364L0 8z" fill="#000" mask="url(#a)"/></g></svg>