<svg width="19" height="19" fill="none" xmlns="http://www.w3.org/2000/svg"><g clip-path="url(#clip0)"><path d="M18.428 1.438H14.7V.683a.572.572 0 1 0-1.145 0v.755H5.444V.683a.572.572 0 0 0-1.144 0v.755H.572A.57.57 0 0 0 0 2.01v16.296c0 .316.256.572.572.572h17.856a.572.572 0 0 0 .572-.572V2.01a.572.572 0 0 0-.572-.572zm-.572 16.296H1.144V6.76h16.712v10.974zm0-12.119H1.144V2.582H4.3v.754a.572.572 0 1 0 1.144 0v-.754h8.113v.754a.572.572 0 1 0 1.145 0v-.754h3.155v3.033z" fill="#979797"/><path stroke="#979797" d="M11.5 11.5h4v4h-4z"/></g><defs><clipPath id="clip0"><path fill="#fff" d="M0 0h19v19H0z"/></clipPath></defs></svg>