<svg width="214" height="162" fill="none" xmlns="http://www.w3.org/2000/svg"><path d="M160.408 83.723c2.704 7.612-1.183 16.069-8.789 18.775-7.605 2.707-16.056-1.184-18.76-8.795-2.705-7.612 1.183-16.07 8.788-18.776 7.606-2.876 15.888 1.184 18.761 8.796zM76.999 96.767l-13.53 4.835 21.315 59.74 13.53-4.835-21.315-59.74zM168.96 63.938l-13.53 4.835 21.314 59.74 13.531-4.836-21.315-59.74z" fill="#F2F2F2"/><path d="M198.439 73.976L84.692 114.572c-8.113 2.876-16.901-1.353-19.775-9.472L42.27 41.668 156.017 1.072c8.113-2.876 17.07 1.353 19.944 9.472l22.479 63.432z" fill="#fff"/><path d="M100.014 88.627l-13.53 4.835 21.315 59.74 13.53-4.835-21.315-59.74zM191.917 55.639l-13.53 4.835 21.314 59.74 13.531-4.835-21.315-59.74z" fill="#fff"/><path d="M64.24 29.658l-.338-.845c-1.69-4.567-6.592-6.936-11.155-5.244L22.155 34.564c-4.563 1.691-6.93 6.597-5.24 11.164l.339.845-16.395 5.92s8.282 12.687 18.085-1.352l11.493 32.138c3.718 10.487 15.38 16.07 25.859 12.179l8.958-3.214c10.479-3.721 16.056-15.393 12.169-25.88L65.93 34.225c16.563 4.567 14.873-10.318 14.873-10.318L64.24 29.658zM155.844 1.241l-38.535 13.701c3.38 3.045 7.436 5.582 11.493 7.95 4.732 2.876 9.633 5.582 15.042 6.597 8.62 1.523 17.239-2.03 24.676-6.597 3.38-2.03 6.591-4.228 8.958-7.273l-1.69-4.905c-2.874-8.12-11.831-12.349-19.944-9.473zM119.505 44.374c3.212 2.538 6.423 5.075 8.789 8.458 2.366 3.214 4.056 7.273 4.225 11.333.17 7.104-4.563 13.87-10.985 16.915-6.423 2.876-14.198 2.368-20.62-.846C94.491 77.021 89.59 71.44 86.21 65.18c-2.367-4.398-3.888-9.134-4.057-14.04-.169-4.905 1.352-9.98 4.564-13.7 8.45-9.642 25.183 1.183 32.788 6.934z" fill="#979797"/><path d="M17.084 45.728l.338.846-16.395 5.92S9.31 65.18 19.112 51.14l7.775 21.65c5.408-2.536 9.802-6.765 12.169-12.178 1.183-2.876 1.859-6.09 2.028-9.303a34.942 34.942 0 0 0-2.536-14.378c-1.014-2.368-2.197-4.567-3.718-6.597l-12.169 4.398c-4.901 1.522-7.268 6.428-5.577 10.995z" fill="#fff"/></svg>