<svg width="22" height="20" fill="none" xmlns="http://www.w3.org/2000/svg"><path d="M4.204 14.42a.373.373 0 0 0 .465-.582 10.198 10.198 0 0 1-.859-.768l-2.756-2.756 2.842-2.842a10.058 10.058 0 0 1 10.372-2.435.373.373 0 0 0 .237-.707A10.8 10.8 0 0 0 3.37 6.945L0 10.314l3.283 3.283c.291.292.601.568.921.824zM18.718 6.945a10.942 10.942 0 0 0-1.637-1.347.373.373 0 0 0-.416.619c.544.364 1.058.787 1.526 1.255l2.756 2.756-2.842 2.842A10.156 10.156 0 0 1 7.54 15.438a.372.372 0 1 0-.251.702 10.901 10.901 0 0 0 11.341-2.543l3.37-3.369-3.283-3.283z" fill="#686868"/><path d="M11.378 14.564a4.274 4.274 0 0 1-2.262-.645.373.373 0 0 0-.393.633 5.015 5.015 0 0 0 2.655.757 5.035 5.035 0 0 0 5.03-5.03c0-1-.294-1.967-.848-2.795a.373.373 0 0 0-.62.415c.473.705.722 1.528.722 2.38a4.29 4.29 0 0 1-4.284 4.285zM11.378 5.995c.77 0 1.523.206 2.181.596a.373.373 0 0 0 .38-.641 5.026 5.026 0 0 0-2.562-.7 5.035 5.035 0 0 0-4.517 7.243.373.373 0 0 0 .669-.328 4.29 4.29 0 0 1 3.849-6.17zM20.35 1.074a.372.372 0 0 0-.527 0L2.498 18.4a.372.372 0 1 0 .527.526L20.349 1.601a.372.372 0 0 0 0-.527z" fill="#686868"/></svg>