<svg width="22" height="13" fill="none" xmlns="http://www.w3.org/2000/svg"><path d="M18.975 3.314c-4.418-4.419-11.606-4.419-16.024 0L0 6.264l3.024 3.024a11.296 11.296 0 0 0 8.013 3.314c2.901 0 5.803-1.104 8.012-3.314L22 6.338l-3.025-3.024zm-.452 5.449c-4.128 4.128-10.845 4.128-14.973 0l-2.5-2.499L3.477 3.84C7.605-.29 14.322-.29 18.45 3.839l2.499 2.498-2.426 2.426z" fill="#686868"/><path d="M10.617 3.317a2.604 2.604 0 0 0-2.601 2.601.372.372 0 0 0 .743 0 1.86 1.86 0 0 1 1.858-1.858.372.372 0 0 0 0-.743z" fill="#686868"/><path d="M10.99 1.459A4.837 4.837 0 0 0 6.157 6.29a4.837 4.837 0 0 0 4.831 4.831A4.837 4.837 0 0 0 15.82 6.29a4.836 4.836 0 0 0-4.83-4.831zm0 8.919A4.093 4.093 0 0 1 6.9 6.29a4.093 4.093 0 0 1 4.088-4.088 4.093 4.093 0 0 1 4.088 4.088 4.092 4.092 0 0 1-4.088 4.088z" fill="#686868"/></svg>