<svg width="20" height="20" fill="none" xmlns="http://www.w3.org/2000/svg"><path d="M2.857 14.671V.714a.357.357 0 1 0-.714 0v13.957A2.502 2.502 0 0 0 0 17.143c0 1.378 1.121 2.5 2.5 2.5S5 18.52 5 17.143a2.502 2.502 0 0 0-2.143-2.472zM2.5 18.93a1.788 1.788 0 0 1-1.786-1.786c0-.985.801-1.786 1.786-1.786s1.786.801 1.786 1.786-.801 1.786-1.786 1.786zM10.357 7.391V.714a.357.357 0 1 0-.715 0V7.37a2.577 2.577 0 0 0-2.29 2.557 2.577 2.577 0 0 0 2.29 2.558v6.802a.357.357 0 1 0 .715 0V12.46a2.576 2.576 0 0 0 2.142-2.535 2.576 2.576 0 0 0-2.142-2.535zm-.432 4.395a1.862 1.862 0 0 1-1.86-1.86c0-1.025.835-1.86 1.86-1.86 1.026 0 1.86.835 1.86 1.86 0 1.025-.834 1.86-1.86 1.86zM20 2.857c0-1.378-1.121-2.5-2.5-2.5a2.503 2.503 0 0 0-2.5 2.5c0 1.257.933 2.297 2.143 2.472v13.957a.357.357 0 1 0 .714 0V5.329A2.502 2.502 0 0 0 20 2.857zm-2.5 1.786a1.788 1.788 0 0 1-1.786-1.786c0-.985.801-1.786 1.786-1.786s1.786.802 1.786 1.786c0 .985-.801 1.786-1.786 1.786z" fill="#fff"/></svg>