<svg width="30" height="28" fill="none" xmlns="http://www.w3.org/2000/svg"><path d="M15 27.689a1.76 1.76 0 0 1-1.16-.436 347.99 347.99 0 0 0-3.411-2.934l-.005-.005c-3.023-2.575-5.633-4.8-7.449-6.99C.945 14.873 0 12.55 0 10.013 0 7.55.845 5.275 2.38 3.61 3.933 1.926 6.064.998 8.38.998c1.732 0 3.318.548 4.714 1.627A9.644 9.644 0 0 1 15 4.615a9.645 9.645 0 0 1 1.906-1.99c1.396-1.08 2.982-1.627 4.713-1.627 2.317 0 4.448.928 6.001 2.612C29.155 5.275 30 7.55 30 10.014c0 2.537-.945 4.86-2.975 7.31-1.816 2.19-4.426 4.414-7.448 6.99a344.8 344.8 0 0 0-3.418 2.94 1.76 1.76 0 0 1-1.159.435zM8.38 2.756c-1.82 0-3.492.726-4.708 2.045-1.235 1.34-1.915 3.19-1.915 5.213 0 2.134.793 4.043 2.571 6.188 1.72 2.074 4.275 4.252 7.235 6.775l.006.005a351.56 351.56 0 0 1 3.428 2.949c1.229-1.07 2.404-2.071 3.44-2.955 2.96-2.522 5.516-4.7 7.235-6.774 1.778-2.146 2.57-4.054 2.57-6.188 0-2.022-.68-3.873-1.914-5.213-1.216-1.319-2.888-2.045-4.709-2.045-1.333 0-2.557.424-3.638 1.26-.964.745-1.635 1.687-2.028 2.346a1.1 1.1 0 0 1-.953.541 1.1 1.1 0 0 1-.953-.541c-.393-.66-1.064-1.601-2.028-2.347-1.08-.835-2.305-1.26-3.638-1.26z" fill="#979797"/></svg>