<svg width="29" height="20" fill="none" xmlns="http://www.w3.org/2000/svg"><path d="M22.778 15.447a.45.45 0 0 1-.31-.123l-5.22-4.897a.453.453 0 1 1 .622-.66l5.22 4.896a.453.453 0 0 1-.312.784zM5.354 15.447a.454.454 0 0 1-.31-.784l5.22-4.897a.454.454 0 0 1 .622.66l-5.221 4.898a.45.45 0 0 1-.31.123z" fill="#979797"/><path d="M25.865 20H2.268A2.27 2.27 0 0 1 0 17.732V2.268A2.27 2.27 0 0 1 2.268 0h23.597a2.27 2.27 0 0 1 2.268 2.268v15.464A2.27 2.27 0 0 1 25.865 20zM2.268.907c-.75 0-1.36.61-1.36 1.36v15.465c0 .75.61 1.36 1.36 1.36h23.597c.75 0 1.36-.61 1.36-1.36V2.268c0-.75-.61-1.36-1.36-1.36H2.268z" fill="#979797"/><path d="M14.067 12.28c-.604 0-1.207-.201-1.666-.601L.753 1.518A.455.455 0 0 1 .71.878a.456.456 0 0 1 .64-.044l11.648 10.16c.58.505 1.56.505 2.138 0L26.77.85a.454.454 0 0 1 .597.684L15.732 11.678c-.46.4-1.062.601-1.665.601z" fill="#979797"/></svg>