<svg width="20" height="20" fill="none" xmlns="http://www.w3.org/2000/svg"><path d="M18.656 5.002A9.93 9.93 0 0 0 12.587.345a9.93 9.93 0 0 0-7.585.999A9.93 9.93 0 0 0 .345 7.413a9.93 9.93 0 0 0 .998 7.585 9.93 9.93 0 0 0 6.07 4.657 9.937 9.937 0 0 0 7.585-.999 9.93 9.93 0 0 0 4.657-6.069 9.93 9.93 0 0 0-.999-7.585zm-.006 7.316a8.896 8.896 0 0 1-4.173 5.437 8.896 8.896 0 0 1-6.795.895 8.896 8.896 0 0 1-5.437-4.172 8.896 8.896 0 0 1-.895-6.796 8.896 8.896 0 0 1 4.173-5.437 8.902 8.902 0 0 1 6.795-.895c2.31.62 4.241 2.101 5.437 4.173a8.896 8.896 0 0 1 .895 6.795z" fill="#979797"/><path d="M14.795 9.057l-6.427-3.71a1.078 1.078 0 0 0-1.089 0c-.341.196-.545.549-.545.943v7.42c0 .394.204.747.545.944a1.086 1.086 0 0 0 1.09 0l6.426-3.71c.341-.198.545-.55.545-.944 0-.394-.204-.746-.545-.943zm-.52.985l-6.427 3.71a.043.043 0 0 1-.049 0c-.024-.014-.024-.032-.024-.041V6.29c0-.01 0-.028.024-.042a.049.049 0 0 1 .025-.008c.011 0 .02.005.024.008l6.427 3.71a.043.043 0 0 1 .024.042.043.043 0 0 1-.024.042zM16.144 5.252a7.85 7.85 0 0 0-5.106-2.948.52.52 0 0 0-.14 1.031A6.8 6.8 0 0 1 15.32 5.89a.52.52 0 1 0 .824-.637z" fill="#979797"/></svg>