<svg width="20" height="20" viewBox="0 0 20 20" fill="none" xmlns="http://www.w3.org/2000/svg">
<path d="M18.6564 5.00216C17.3215 2.68997 15.166 1.03595 12.587 0.344934C10.0081 -0.346159 7.31441 0.00848919 5.00211 1.34353C2.68984 2.67853 1.0359 4.83399 0.344882 7.41298C-0.346133 9.99192 0.00851526 12.6857 1.34348 14.9979C2.6784 17.31 4.83394 18.9641 7.41289 19.6551C8.27406 19.8859 9.14792 20 10.0162 20C11.7482 20 13.4577 19.5457 14.9978 18.6565C17.31 17.3216 18.964 15.1661 19.6551 12.5871C20.3461 10.0081 19.9914 7.31442 18.6564 5.00216ZM18.6495 12.3177C18.0305 14.6281 16.5487 16.5591 14.4773 17.7551C12.4059 18.9511 9.99265 19.2687 7.68226 18.6497C5.37183 18.0307 3.44082 16.5489 2.24484 14.4775C1.04891 12.4061 0.73121 9.99282 1.35031 7.68239C1.96941 5.372 3.45113 3.44103 5.52257 2.24501C6.90246 1.44833 8.43367 1.04142 9.98542 1.04142C10.7632 1.04142 11.5463 1.14368 12.3175 1.35036C14.6279 1.96943 16.559 3.45114 17.7549 5.52263C18.9509 7.59407 19.2686 10.0073 18.6495 12.3177Z" fill="#979797"/>
</svg>
