<svg width="53" height="30" fill="none" xmlns="http://www.w3.org/2000/svg"><path d="M18.492 12.008L14.8 16.282c-.336-.466-.822-.842-1.457-1.127a4.657 4.657 0 0 0-1.923-.427c-1.322 0-2.397.486-3.226 1.457-.829.972-1.243 2.144-1.243 3.517 0 1.37.414 2.539 1.243 3.497.83.959 1.93 1.438 3.303 1.438 1.503 0 2.656-.48 3.459-1.438l3.536 4.314C16.782 29.17 14.4 30 11.342 30c-3.135 0-5.725-.933-7.772-2.795C1.523 25.34.5 22.837.5 19.705c0-3.083 1.03-5.57 3.09-7.461 2.059-1.891 4.63-2.837 7.713-2.837 1.373 0 2.727.24 4.061.72 1.334.475 2.377 1.103 3.128 1.88zM40.174 29.378h-6.412V18.886c0-2.72-.946-4.08-2.837-4.08-1.062 0-1.904.388-2.526 1.166-.621.777-.932 1.761-.932 2.953v10.453h-6.373V0h6.373v12.474h.078c.466-.829 1.191-1.535 2.176-2.118.984-.583 2.111-.874 3.38-.874 2.436 0 4.223.77 5.363 2.312 1.14 1.541 1.71 3.413 1.71 5.615v11.97zM51.114 23.257c.764.742 1.146 1.642 1.146 2.701 0 1.062-.382 1.963-1.146 2.701a3.795 3.795 0 0 1-2.74 1.11c-1.088 0-2.02-.362-2.798-1.087-.777-.729-1.166-1.62-1.166-2.682 0-1.062.389-1.969 1.166-2.72a3.886 3.886 0 0 1 2.798-1.13c1.062 0 1.975.37 2.74 1.107z" fill="#fff"/></svg>