<svg width="35" height="20" fill="none" xmlns="http://www.w3.org/2000/svg"><path d="M11.995 8.005l-2.461 2.85c-.225-.311-.549-.561-.972-.751a3.105 3.105 0 0 0-1.282-.285c-.881 0-1.598.323-2.15.971-.553.648-.83 1.43-.83 2.345 0 .913.277 1.692.83 2.331.552.64 1.286.959 2.202.959 1.001 0 1.77-.32 2.305-.959l2.358 2.876C10.855 19.447 9.266 20 7.228 20c-2.09 0-3.817-.622-5.181-1.863C.682 16.893 0 15.225 0 13.137c0-2.055.687-3.713 2.06-4.974 1.373-1.261 3.087-1.891 5.142-1.891.915 0 1.818.16 2.707.479.89.317 1.585.736 2.086 1.254zM26.45 19.585h-4.274v-6.994c0-1.814-.63-2.72-1.891-2.72-.708 0-1.27.258-1.684.777-.415.518-.622 1.174-.622 1.969v6.968h-4.248V0h4.248v8.316h.052c.31-.553.795-1.023 1.45-1.412.657-.388 1.408-.583 2.255-.583 1.623 0 2.815.514 3.575 1.542.76 1.027 1.14 2.275 1.14 3.743v7.98zM33.742 15.505c.51.495.765 1.095.765 1.8 0 .709-.255 1.309-.765 1.801a2.53 2.53 0 0 1-1.826.74 2.638 2.638 0 0 1-1.865-.725 2.352 2.352 0 0 1-.778-1.787c0-.708.26-1.313.778-1.814a2.59 2.59 0 0 1 1.865-.753c.708 0 1.317.246 1.826.738z" fill="#000"/></svg>