<svg width="20" height="20" fill="none" xmlns="http://www.w3.org/2000/svg"><path d="M15.131 19.162a.502.502 0 1 0 1.005 0V2.047l3.008 3.008a.498.498 0 0 0 .356.147.498.498 0 0 0 .355-.854L15.993.486a.514.514 0 0 0-.707 0l-3.861 3.862a.498.498 0 0 0 0 .707c.196.196.51.196.707 0l3.007-3.008v17.115h-.008zM8.578 14.945a.498.498 0 0 0-.707 0l-3.008 3.008V.838a.502.502 0 1 0-1.005 0v17.115L.854 14.945a.498.498 0 0 0-.707 0 .498.498 0 0 0 0 .707l3.862 3.862a.498.498 0 0 0 .356.147c.13 0 .257-.05.355-.147l3.862-3.862a.51.51 0 0 0-.004-.707z" fill="#fff"/></svg>