<svg width="16" height="20" fill="none" xmlns="http://www.w3.org/2000/svg"><path d="M15.329 5.199H3.146a2.054 2.054 0 0 1-2.051-2.052c0-1.128.918-2.051 2.051-2.051h12.186a.548.548 0 1 0 0-1.096H3.147A3.152 3.152 0 0 0 0 3.147v13.706A3.152 3.152 0 0 0 3.147 20h12.186a.548.548 0 0 0 .547-.548V5.747a.554.554 0 0 0-.552-.548zm-.548 13.705H3.147a2.054 2.054 0 0 1-2.051-2.051V5.537a3.142 3.142 0 0 0 2.051.762h11.634v12.605z" fill="#979797"/><path d="M3.32 2.649a.548.548 0 1 0 0 1.096h10.29a.548.548 0 1 0 0-1.096H3.32z" fill="#979797"/></svg>