<svg width="16" height="20" viewBox="0 0 16 20" fill="none" xmlns="http://www.w3.org/2000/svg">
<path d="M15.3285 5.19876H3.14727C2.01854 5.19876 1.09578 4.28012 1.09578 3.14727C1.09578 2.01854 2.01442 1.09578 3.14727 1.09578H15.3326C15.6375 1.09578 15.8805 0.84861 15.8805 0.547889C15.8805 0.243048 15.6334 0 15.3326 0H3.14727C1.41298 0 0 1.41298 0 3.14727V16.8527C0 18.587 1.41298 20 3.14727 20H15.3326C15.6375 20 15.8805 19.7528 15.8805 19.4521V5.74665C15.8764 5.44593 15.6334 5.19876 15.3285 5.19876ZM14.7806 18.9042H3.14727C2.01854 18.9042 1.09578 17.9856 1.09578 16.8527V5.53656C1.64779 6.0103 2.36457 6.29866 3.14727 6.29866H14.7806V18.9042Z" fill="#979797"/>
<path d="M3.31937 2.64882C3.01453 2.64882 2.77148 2.89599 2.77148 3.19671C2.77148 3.49743 3.01865 3.7446 3.31937 3.7446H13.6098C13.9146 3.7446 14.1577 3.49743 14.1577 3.19671C14.1577 2.89599 13.9105 2.64882 13.6098 2.64882H3.31937Z" fill="#979797"/>
</svg>
