<svg width="20" height="20" fill="none" xmlns="http://www.w3.org/2000/svg"><path d="M19.566 9.61c.394-.381.533-.94.363-1.459a1.422 1.422 0 0 0-1.158-.968l-4.843-.698a.632.632 0 0 1-.477-.343l-2.165-4.351A1.427 1.427 0 0 0 10 .998c-.55 0-1.043.304-1.286.793L6.55 6.142a.633.633 0 0 1-.477.343l-4.843.699a1.421 1.421 0 0 0-1.158.967c-.17.52-.03 1.078.363 1.458l3.504 3.387c.15.144.218.352.182.556l-.827 4.782c-.092.537.126 1.07.57 1.39a1.432 1.432 0 0 0 1.511.109l4.331-2.258a.639.639 0 0 1 .59 0l4.331 2.258a1.442 1.442 0 0 0 1.51-.108c.446-.321.664-.854.57-1.391l-.826-4.782a.625.625 0 0 1 .182-.556l3.504-3.387zm-4.475 4.076l.827 4.782a.614.614 0 0 1-.252.614.628.628 0 0 1-.667.048l-4.331-2.258a1.45 1.45 0 0 0-1.336 0l-4.33 2.258a.629.629 0 0 1-.667-.048.615.615 0 0 1-.252-.614l.827-4.782a1.415 1.415 0 0 0-.413-1.259L.993 9.04a.612.612 0 0 1-.16-.643.62.62 0 0 1 .51-.428l4.843-.698a1.432 1.432 0 0 0 1.08-.778l2.166-4.35a.622.622 0 0 1 .568-.35c.246 0 .459.13.568.35l2.165 4.35c.209.42.613.711 1.08.778l4.843.698a.62.62 0 0 1 .51.428.613.613 0 0 1-.16.643l-3.503 3.387a1.414 1.414 0 0 0-.412 1.26z" fill="#686868"/></svg>