<svg width="20" height="19" fill="none" xmlns="http://www.w3.org/2000/svg"><path d="M10.966.596l2.255 4.54c.157.317.46.536.811.586l5.045.728c.883.128 1.236 1.206.597 1.825l-3.65 3.534c-.254.246-.37.6-.31.947l.862 4.99c.15.875-.773 1.541-1.563 1.129L10.5 16.519a1.085 1.085 0 0 0-1.002 0l-4.512 2.356c-.79.413-1.714-.254-1.563-1.128l.862-4.99a1.065 1.065 0 0 0-.31-.948L.326 8.275C-.313 7.655.04 6.577.923 6.45l5.045-.728c.35-.05.654-.27.81-.585L9.035.597C9.43-.2 10.57-.2 10.966.596z" fill="#fff"/></svg>