<svg width="20" height="20" fill="none" xmlns="http://www.w3.org/2000/svg"><path d="M10.966 1.595l2.255 4.54c.157.316.46.535.811.585l5.045.729c.883.127 1.236 1.205.597 1.824l-3.65 3.534c-.254.246-.37.6-.31.947l.862 4.99c.15.875-.773 1.541-1.563 1.129L10.5 17.517a1.085 1.085 0 0 0-1.002 0l-4.512 2.356c-.79.413-1.714-.254-1.563-1.128l.862-4.99a1.065 1.065 0 0 0-.31-.948L.326 9.273C-.313 8.654.04 7.576.923 7.45l5.045-.729c.35-.05.654-.269.81-.585l2.256-4.54c.395-.796 1.536-.796 1.932 0z" fill="#7F00AC"/></svg>