<svg width="76" height="76" fill="none" xmlns="http://www.w3.org/2000/svg"><path d="M64.516 11.483C57.434 4.401 48.016.5 38 .5 27.983.5 18.566 4.4 11.484 11.483 4.4 18.566.5 27.983.5 38s3.9 19.434 10.984 26.517C18.566 71.599 27.984 75.5 38 75.5c10.017 0 19.434-3.9 26.516-10.983C71.6 57.434 75.5 48.017 75.5 38s-3.9-19.434-10.984-26.517zM38 72.512C18.97 72.512 3.488 57.03 3.488 38S18.97 3.488 38 3.488 72.512 18.97 72.512 38 57.03 72.512 38 72.512z" fill="#7F00AC"/><path d="M59.327 21.902a5.235 5.235 0 0 0-7.395 0l-22 22-7.21-7.209a5.235 5.235 0 0 0-7.394 0 5.235 5.235 0 0 0 0 7.395l10.906 10.907a5.195 5.195 0 0 0 3.698 1.53c1.396 0 2.71-.543 3.697-1.53l25.698-25.698a5.235 5.235 0 0 0 0-7.395zm-2.113 5.282L31.517 52.881a2.227 2.227 0 0 1-1.585.657 2.226 2.226 0 0 1-1.585-.657L17.441 41.975a2.244 2.244 0 0 1 0-3.17 2.234 2.234 0 0 1 1.585-.654c.573 0 1.148.218 1.584.655l8.265 8.265c.584.584 1.53.584 2.113 0l23.056-23.056a2.244 2.244 0 0 1 3.17 0 2.244 2.244 0 0 1 0 3.17zM68.195 44.172c-.8-.204-1.613.279-1.817 1.079C63.075 58.223 51.405 67.283 38 67.283a1.494 1.494 0 0 0 0 2.988c14.772 0 27.633-9.986 31.274-24.283.204-.8-.28-1.613-1.08-1.816zM68.777 36.506c-.825 0-1.494.67-1.494 1.494 0 .428-.01.858-.028 1.28a1.494 1.494 0 1 0 2.986.13c.02-.466.03-.94.03-1.41 0-.825-.67-1.494-1.494-1.494z" fill="#7F00AC"/></svg>