<svg width="20" height="20" fill="none" xmlns="http://www.w3.org/2000/svg"><path d="M19.202 6.105C18.147 3.645 16.355 1.857 13.877.8A9.825 9.825 0 0 0 9.984 0a9.723 9.723 0 0 0-3.882.799C3.643 1.854 1.844 3.64.787 6.105A9.742 9.742 0 0 0 0 9.99c0 1.357.258 2.66.787 3.895 1.057 2.464 2.857 4.262 5.315 5.317A9.723 9.723 0 0 0 9.984 20c1.355 0 2.654-.27 3.892-.799 2.48-1.057 4.271-2.857 5.326-5.317A9.792 9.792 0 0 0 20 9.99a9.734 9.734 0 0 0-.798-3.884zm-1.597 8.304a8.775 8.775 0 0 1-3.215 3.206 8.609 8.609 0 0 1-4.406 1.182c-1.192 0-2.33-.23-3.412-.7-1.083-.471-2.017-1.09-2.8-1.872-.781-.782-1.404-1.726-1.87-2.811a8.618 8.618 0 0 1-.688-3.425c0-1.586.39-3.055 1.17-4.398a8.78 8.78 0 0 1 3.204-3.206 8.543 8.543 0 0 1 4.396-1.182 8.61 8.61 0 0 1 4.406 1.182 8.802 8.802 0 0 1 3.215 3.206 8.554 8.554 0 0 1 1.181 4.398 8.638 8.638 0 0 1-1.18 4.42z" fill="#979797"/><path d="M10.346 9.685V4.226c0-.326-.3-.59-.644-.59-.322 0-.61.264-.61.59V9.77c0 .01.022.053.022.084a.534.534 0 0 0 .166.475l3.318 3.15c.222.211.632.211.854 0a.549.549 0 0 0 0-.822l-3.106-2.971z" fill="#979797"/></svg>